<?xml version="1.0" encoding="UTF-8" standalone="no"?>
<!DOCTYPE svg PUBLIC "-//W3C//DTD SVG 1.1//EN" "http://www.w3.org/Graphics/SVG/1.1/DTD/svg11.dtd">
<svg xmlns="http://www.w3.org/2000/svg" version="1.1" viewBox="0.00 0.00 1354.00 946.00">
<g stroke-width="2.00" fill="none" stroke-linecap="butt">
<path stroke="#85888b" vector-effect="non-scaling-stroke" d="
  M 303.93 151.53
  C 281.83 115.12 249.85 88.29 208.21 77.73
  C 154.63 64.15 97.07 84.69 69.18 133.17
  C 59.25 150.43 54.20 169.04 51.66 189.18
  Q 38.83 290.89 35.75 319.50
  Q 30.82 365.14 27.55 390.82
  Q 25.73 405.04 25.52 410.72
  C 24.02 450.65 39.78 489.98 67.44 518.58
  Q 71.75 523.05 75.68 527.37
  A 1.47 1.45 37.8 0 1 75.90 529.03
  C 57.74 564.14 60.54 604.60 79.08 638.93
  C 84.91 649.74 91.09 660.31 96.47 671.32
  Q 107.95 694.82 120.32 717.88
  C 147.68 768.91 209.77 783.04 258.72 753.47
  Q 275.74 743.19 297.44 727.50
  C 313.44 715.94 328.53 710.32 347.67 718.26
  Q 356.42 721.90 359.24 723.47
  C 431.18 763.74 502.56 804.25 577.89 838.01
  C 615.14 854.70 653.09 868.98 692.67 879.11
  C 723.90 887.11 755.14 890.23 787.24 889.94
  C 858.34 889.31 921.09 863.38 977.12 820.72
  A 2.79 2.77 35.2 0 1 979.68 820.29
  Q 1017.92 832.79 1055.31 848.70
  C 1068.35 854.26 1082.90 858.78 1097.50 859.21
  C 1113.19 859.68 1130.95 858.84 1146.01 856.77
  C 1173.32 853.01 1198.19 841.77 1220.45 825.25
  C 1231.82 816.82 1242.90 804.55 1253.67 794.11
  C 1262.72 785.34 1270.24 776.26 1278.02 766.76
  C 1280.63 763.57 1282.94 756.15 1285.41 751.66
  C 1309.23 708.37 1309.95 655.92 1291.41 610.57
  Q 1289.74 606.48 1284.53 595.75
  A 0.89 0.89 0.0 0 1 1284.60 594.85
  C 1322.96 540.51 1320.35 467.84 1277.47 416.87
  C 1265.78 402.97 1251.56 391.96 1235.30 383.93
  A 1.32 1.31 -71.0 0 1 1234.60 382.49
  Q 1243.39 339.14 1251.09 295.16
  C 1254.46 275.85 1258.39 257.03 1263.08 238.17
  C 1282.15 161.49 1237.10 88.94 1161.79 70.74
  Q 1152.07 68.40 1142.04 67.81
  C 1103.60 65.56 1066.12 76.61 1037.70 103.36
  C 1035.37 105.55 1033.17 105.98 1030.23 105.34
  Q 973.75 93.02 917.20 80.99
  Q 887.39 74.64 858.29 83.49
  C 839.54 89.18 820.98 98.47 806.92 112.17
  A 0.71 0.71 0.0 0 1 806.10 112.28
  C 747.61 80.21 683.07 75.94 621.03 101.31
  C 596.67 111.28 577.04 125.09 558.12 142.74
  A 0.71 0.70 -50.8 0 1 557.28 142.83
  Q 549.62 138.24 541.80 133.98
  C 466.17 92.70 371.84 92.08 305.03 151.69
  A 0.72 0.72 0.0 0 1 303.93 151.53"
/>
<path stroke="#85888b" vector-effect="non-scaling-stroke" d="
  M 1054.48 448.29
  C 1046.12 492.96 1063.42 523.83 1104.17 541.83
  Q 1127.92 552.32 1153.19 555.55
  C 1171.25 557.85 1184.26 552.38 1197.48 540.50
  C 1209.66 529.56 1216.52 512.29 1211.76 496.18
  C 1205.65 475.47 1184.84 466.02 1164.93 464.94
  Q 1155.97 464.46 1147.00 464.25
  C 1123.64 463.71 1122.37 440.18 1125.50 423.06
  C 1141.65 334.77 1153.69 278.07 1167.37 205.52
  Q 1167.80 203.27 1167.99 197.65
  C 1168.76 174.88 1142.45 160.17 1122.97 168.20
  C 1111.04 173.12 1107.65 183.93 1105.30 195.31
  C 1098.06 230.34 1091.95 262.28 1085.50 293.80
  C 1074.96 345.26 1064.14 396.65 1054.48 448.29"
/>
<path stroke="#85888b" vector-effect="non-scaling-stroke" d="
  M 203.06 182.19
  C 192.54 171.98 177.34 168.72 164.66 177.21
  C 154.00 184.35 151.49 194.15 150.22 206.25
  C 142.23 282.06 136.44 341.92 127.49 398.23
  C 121.67 434.86 135.71 456.53 169.81 469.45
  Q 186.79 475.88 206.30 481.97
  Q 216.91 485.28 227.99 486.08
  C 249.93 487.66 270.71 474.37 280.65 455.84
  C 299.58 420.55 270.95 395.59 237.47 394.64
  Q 233.06 394.51 219.77 393.75
  C 201.95 392.73 196.69 376.79 198.03 361.55
  C 202.32 312.92 207.96 264.50 213.38 215.99
  C 214.92 202.21 213.59 192.40 203.06 182.19"
/>
<path stroke="#85888b" vector-effect="non-scaling-stroke" d="
  M 945.32 429.77
  Q 940.44 443.25 945.58 455.40
  C 953.01 472.99 973.23 482.65 990.93 473.90
  Q 1010.91 464.01 1010.79 441.25
  C 1010.67 417.44 1009.56 384.34 1008.96 351.32
  C 1008.05 301.27 1006.29 251.25 1005.09 201.20
  A 1.47 1.45 7.6 0 0 1004.03 199.83
  Q 996.77 197.71 989.43 196.34
  Q 939.28 186.93 885.38 177.63
  Q 884.05 177.40 883.67 178.70
  C 874.99 208.50 865.79 238.47 857.31 268.63
  C 843.61 317.32 828.52 365.65 815.22 414.43
  Q 811.55 427.88 817.73 438.78
  C 825.86 453.12 847.62 459.71 862.56 453.59
  C 876.12 448.04 879.83 433.87 879.68 420.76
  A 0.81 0.81 0.0 0 1 880.62 419.94
  L 945.23 429.61
  A 0.12 0.12 0.0 0 1 945.32 429.77"
/>
<path stroke="#85888b" vector-effect="non-scaling-stroke" d="
  M 619.52 403.67
  C 626.80 413.78 637.71 422.09 648.03 428.73
  C 655.06 433.26 660.90 434.88 669.00 436.51
  Q 702.24 443.18 730.88 446.70
  C 745.28 448.48 754.09 447.00 763.04 435.57
  C 771.97 424.17 774.05 410.90 767.38 397.99
  C 760.89 385.45 748.21 380.63 734.25 380.22
  C 713.51 379.61 690.45 378.93 676.61 364.25
  C 663.75 350.60 657.73 329.94 658.78 311.34
  C 660.36 283.34 672.93 258.06 703.12 253.18
  C 717.51 250.85 725.72 259.11 738.68 260.17
  C 758.40 261.78 772.78 246.03 773.13 227.04
  C 773.53 205.61 754.48 193.86 736.45 188.63
  C 678.64 171.86 620.42 203.91 600.67 259.93
  C 583.79 307.81 589.59 362.02 619.52 403.67"
/>
<path stroke="#85888b" vector-effect="non-scaling-stroke" d="
  M 360.11 449.39
  C 380.20 469.31 405.21 478.41 433.25 479.96
  Q 445.76 480.65 457.95 477.83
  C 520.84 463.28 550.92 412.33 556.01 351.50
  C 560.00 303.80 543.56 256.30 505.01 226.73
  C 459.80 192.06 395.12 196.41 356.92 239.82
  C 325.08 276.01 315.24 324.42 321.73 371.75
  Q 328.00 417.54 360.11 449.39"
/>
<path stroke="#85888b" vector-effect="non-scaling-stroke" d="
  M 610.13 535.58
  C 629.42 540.83 644.01 534.17 649.79 514.56
  C 655.13 496.44 651.04 467.91 627.05 466.44
  C 615.04 465.70 604.19 467.20 593.01 465.23
  A 0.56 0.56 0.0 0 0 592.36 465.71
  C 587.12 504.00 586.81 543.53 584.03 577.00
  Q 583.79 579.85 585.92 580.11
  C 592.74 580.94 598.88 582.28 605.90 582.22
  Q 606.54 582.21 606.58 581.57
  L 609.54 535.99
  Q 609.58 535.43 610.13 535.58"
/>
<path stroke="#85888b" vector-effect="non-scaling-stroke" d="
  M 685.86 572.75
  C 684.38 599.51 711.29 609.37 731.63 597.16
  C 739.85 592.22 743.42 582.74 745.25 573.50
  Q 748.42 557.47 752.41 523.57
  Q 754.48 505.92 743.08 495.94
  C 732.28 486.49 715.79 485.49 703.55 493.05
  C 695.07 498.28 693.10 508.48 691.51 518.75
  Q 687.35 545.62 685.86 572.75"
/>
<path stroke="#85888b" vector-effect="non-scaling-stroke" d="
  M 286.56 617.26
  C 322.01 601.75 359.90 612.52 392.96 628.76
  C 472.49 667.81 548.90 712.41 629.60 749.26
  Q 673.43 769.27 710.00 780.25
  C 738.53 788.81 771.38 793.41 801.07 789.37
  C 852.52 782.37 899.58 758.03 939.08 724.83
  C 957.15 709.64 977.31 691.95 998.84 675.81
  C 1019.99 659.95 1081.08 626.20 1102.64 656.67
  Q 1118.54 679.13 1104.86 699.61
  Q 1101.54 704.58 1091.22 714.15
  Q 1079.41 725.12 1067.64 736.14
  Q 1063.23 740.27 1059.39 745.08
  Q 1059.03 745.52 1059.52 745.82
  Q 1061.72 747.12 1063.57 747.45
  Q 1082.49 750.77 1099.56 757.94
  C 1105.45 760.41 1111.78 763.28 1118.12 762.98
  C 1126.48 762.59 1140.99 760.39 1147.38 754.51
  C 1155.32 747.21 1163.68 738.37 1172.05 732.54
  C 1195.74 716.04 1208.73 691.62 1204.81 662.44
  C 1197.69 609.60 1145.40 568.67 1093.06 572.06
  C 1070.54 573.53 1048.41 583.44 1028.71 594.97
  C 998.57 612.59 969.04 631.03 938.44 647.89
  Q 918.23 659.04 903.50 665.02
  Q 822.02 698.12 740.31 668.44
  C 686.73 648.98 636.11 619.14 584.07 593.54
  C 521.22 562.62 460.12 527.26 393.45 504.89
  C 378.71 499.94 362.63 496.00 348.24 494.25
  C 312.95 489.94 279.19 496.68 246.77 511.44
  C 214.57 526.09 191.52 547.80 166.58 571.08
  Q 164.31 573.20 162.17 575.52
  A 1.06 1.04 60.4 0 0 161.92 576.46
  Q 162.22 577.79 163.05 579.48
  Q 173.63 601.19 204.95 666.59
  Q 205.21 667.14 205.76 666.87
  Q 207.93 665.77 211.32 663.58
  Q 222.63 656.28 266.99 628.20
  Q 279.15 620.51 286.56 617.26"
/>
<path stroke="#85888b" vector-effect="non-scaling-stroke" d="
  M 812.54 578.62
  C 816.08 592.00 820.01 605.11 822.28 618.71
  A 1.70 1.67 -89.3 0 0 823.62 620.10
  L 840.53 623.46
  Q 841.93 623.74 842.22 622.34
  Q 854.01 566.61 863.24 510.40
  A 0.65 0.65 0.0 0 0 862.72 509.66
  L 845.02 506.36
  A 1.68 1.67 -77.7 0 0 843.08 507.61
  Q 837.90 529.06 830.95 549.97
  A 0.34 0.34 0.0 0 1 830.30 549.96
  C 827.18 538.93 825.87 527.61 824.26 516.25
  Q 823.49 510.82 821.60 506.14
  A 2.65 2.65 0.0 0 0 819.25 504.48
  L 801.45 503.78
  Q 800.90 503.75 800.65 504.24
  Q 799.91 505.68 799.50 507.25
  C 790.21 542.89 787.75 579.26 784.71 615.88
  A 0.70 0.69 9.2 0 0 785.25 616.61
  L 804.46 621.05
  Q 804.92 621.16 804.99 620.69
  Q 808.10 599.57 812.28 578.63
  Q 812.39 578.07 812.54 578.62"
/>
<path stroke="#85888b" vector-effect="non-scaling-stroke" d="
  M 932.30 593.54
  C 928.57 601.32 924.14 609.78 915.80 600.51
  Q 911.86 596.12 913.46 589.76
  C 915.90 580.02 928.90 534.75 946.35 545.13
  C 949.62 547.08 951.23 551.69 955.47 552.50
  Q 961.73 553.69 968.72 549.76
  C 970.86 548.56 970.16 546.36 970.30 544.48
  C 971.17 532.64 963.92 522.22 952.97 518.49
  C 941.09 514.45 927.30 519.11 918.54 527.81
  C 914.19 532.12 910.31 538.52 907.43 544.17
  Q 894.79 568.93 891.78 597.07
  C 889.47 618.64 913.93 637.25 933.83 628.63
  C 944.50 624.01 950.99 612.97 954.76 602.00
  Q 959.96 586.87 964.58 572.00
  A 0.95 0.94 -80.4 0 0 963.71 570.77
  Q 949.29 570.25 935.53 565.94
  A 1.08 1.07 22.0 0 0 934.25 566.48
  Q 929.17 576.54 925.79 587.31
  A 2.52 2.52 0.0 0 0 927.09 590.33
  L 932.03 592.77
  Q 932.55 593.02 932.30 593.54"
/>
<path stroke="#85888b" vector-effect="non-scaling-stroke" d="
  M 905.23 353.30
  L 941.57 355.45
  Q 942.12 355.48 942.10 354.93
  L 937.40 251.10
  A 0.65 0.65 0.0 0 0 936.14 250.89
  C 932.56 259.90 929.25 268.63 926.40 278.17
  Q 915.29 315.36 904.82 352.73
  Q 904.67 353.27 905.23 353.30"
/>
<path stroke="#85888b" vector-effect="non-scaling-stroke" d="
  M 405.44 398.31
  Q 419.43 411.63 437.51 411.45
  C 479.04 411.03 491.29 357.96 487.78 326.34
  C 484.90 300.43 468.57 272.18 439.16 272.04
  C 409.14 271.90 393.09 301.44 388.50 326.99
  C 384.20 350.89 386.86 380.62 405.44 398.31"
/>
<path stroke="#85888b" vector-effect="non-scaling-stroke" d="
  M 609.74 511.60
  C 613.43 512.69 618.72 514.60 622.16 513.66
  C 628.78 511.87 628.97 502.48 627.29 496.94
  Q 624.98 489.30 616.97 488.44
  Q 611.24 487.82 610.72 492.73
  Q 609.72 502.10 609.10 510.67
  Q 609.04 511.40 609.74 511.60"
/>
<path stroke="#85888b" vector-effect="non-scaling-stroke" d="
  M 707.56 570.50
  C 706.92 574.79 709.54 579.39 714.25 579.29
  C 722.54 579.11 723.90 571.48 724.74 564.75
  Q 727.86 539.68 729.39 521.51
  C 729.75 517.25 726.85 511.85 722.19 511.48
  C 716.66 511.05 715.90 517.92 715.15 522.43
  Q 711.18 546.45 707.56 570.50"
/>
</g>
<path fill="#cdd0d1" d="
  M 0.00 0.00
  L 1354.00 0.00
  L 1354.00 946.00
  L 0.00 946.00
  L 0.00 0.00
  Z
  M 303.93 151.53
  C 281.83 115.12 249.85 88.29 208.21 77.73
  C 154.63 64.15 97.07 84.69 69.18 133.17
  C 59.25 150.43 54.20 169.04 51.66 189.18
  Q 38.83 290.89 35.75 319.50
  Q 30.82 365.14 27.55 390.82
  Q 25.73 405.04 25.52 410.72
  C 24.02 450.65 39.78 489.98 67.44 518.58
  Q 71.75 523.05 75.68 527.37
  A 1.47 1.45 37.8 0 1 75.90 529.03
  C 57.74 564.14 60.54 604.60 79.08 638.93
  C 84.91 649.74 91.09 660.31 96.47 671.32
  Q 107.95 694.82 120.32 717.88
  C 147.68 768.91 209.77 783.04 258.72 753.47
  Q 275.74 743.19 297.44 727.50
  C 313.44 715.94 328.53 710.32 347.67 718.26
  Q 356.42 721.90 359.24 723.47
  C 431.18 763.74 502.56 804.25 577.89 838.01
  C 615.14 854.70 653.09 868.98 692.67 879.11
  C 723.90 887.11 755.14 890.23 787.24 889.94
  C 858.34 889.31 921.09 863.38 977.12 820.72
  A 2.79 2.77 35.2 0 1 979.68 820.29
  Q 1017.92 832.79 1055.31 848.70
  C 1068.35 854.26 1082.90 858.78 1097.50 859.21
  C 1113.19 859.68 1130.95 858.84 1146.01 856.77
  C 1173.32 853.01 1198.19 841.77 1220.45 825.25
  C 1231.82 816.82 1242.90 804.55 1253.67 794.11
  C 1262.72 785.34 1270.24 776.26 1278.02 766.76
  C 1280.63 763.57 1282.94 756.15 1285.41 751.66
  C 1309.23 708.37 1309.95 655.92 1291.41 610.57
  Q 1289.74 606.48 1284.53 595.75
  A 0.89 0.89 0.0 0 1 1284.60 594.85
  C 1322.96 540.51 1320.35 467.84 1277.47 416.87
  C 1265.78 402.97 1251.56 391.96 1235.30 383.93
  A 1.32 1.31 -71.0 0 1 1234.60 382.49
  Q 1243.39 339.14 1251.09 295.16
  C 1254.46 275.85 1258.39 257.03 1263.08 238.17
  C 1282.15 161.49 1237.10 88.94 1161.79 70.74
  Q 1152.07 68.40 1142.04 67.81
  C 1103.60 65.56 1066.12 76.61 1037.70 103.36
  C 1035.37 105.55 1033.17 105.98 1030.23 105.34
  Q 973.75 93.02 917.20 80.99
  Q 887.39 74.64 858.29 83.49
  C 839.54 89.18 820.98 98.47 806.92 112.17
  A 0.71 0.71 0.0 0 1 806.10 112.28
  C 747.61 80.21 683.07 75.94 621.03 101.31
  C 596.67 111.28 577.04 125.09 558.12 142.74
  A 0.71 0.70 -50.8 0 1 557.28 142.83
  Q 549.62 138.24 541.80 133.98
  C 466.17 92.70 371.84 92.08 305.03 151.69
  A 0.72 0.72 0.0 0 1 303.93 151.53
  Z"
/>
<path fill="#3d4044" d="
  M 303.93 151.53
  A 0.72 0.72 0.0 0 0 305.03 151.69
  C 371.84 92.08 466.17 92.70 541.80 133.98
  Q 549.62 138.24 557.28 142.83
  A 0.71 0.70 -50.8 0 0 558.12 142.74
  C 577.04 125.09 596.67 111.28 621.03 101.31
  C 683.07 75.94 747.61 80.21 806.10 112.28
  A 0.71 0.71 0.0 0 0 806.92 112.17
  C 820.98 98.47 839.54 89.18 858.29 83.49
  Q 887.39 74.64 917.20 80.99
  Q 973.75 93.02 1030.23 105.34
  C 1033.17 105.98 1035.37 105.55 1037.70 103.36
  C 1066.12 76.61 1103.60 65.56 1142.04 67.81
  Q 1152.07 68.40 1161.79 70.74
  C 1237.10 88.94 1282.15 161.49 1263.08 238.17
  C 1258.39 257.03 1254.46 275.85 1251.09 295.16
  Q 1243.39 339.14 1234.60 382.49
  A 1.32 1.31 -71.0 0 0 1235.30 383.93
  C 1251.56 391.96 1265.78 402.97 1277.47 416.87
  C 1320.35 467.84 1322.96 540.51 1284.60 594.85
  A 0.89 0.89 0.0 0 0 1284.53 595.75
  Q 1289.74 606.48 1291.41 610.57
  C 1309.95 655.92 1309.23 708.37 1285.41 751.66
  C 1282.94 756.15 1280.63 763.57 1278.02 766.76
  C 1270.24 776.26 1262.72 785.34 1253.67 794.11
  C 1242.90 804.55 1231.82 816.82 1220.45 825.25
  C 1198.19 841.77 1173.32 853.01 1146.01 856.77
  C 1130.95 858.84 1113.19 859.68 1097.50 859.21
  C 1082.90 858.78 1068.35 854.26 1055.31 848.70
  Q 1017.92 832.79 979.68 820.29
  A 2.79 2.77 35.2 0 0 977.12 820.72
  C 921.09 863.38 858.34 889.31 787.24 889.94
  C 755.14 890.23 723.90 887.11 692.67 879.11
  C 653.09 868.98 615.14 854.70 577.89 838.01
  C 502.56 804.25 431.18 763.74 359.24 723.47
  Q 356.42 721.90 347.67 718.26
  C 328.53 710.32 313.44 715.94 297.44 727.50
  Q 275.74 743.19 258.72 753.47
  C 209.77 783.04 147.68 768.91 120.32 717.88
  Q 107.95 694.82 96.47 671.32
  C 91.09 660.31 84.91 649.74 79.08 638.93
  C 60.54 604.60 57.74 564.14 75.90 529.03
  A 1.47 1.45 37.8 0 0 75.68 527.37
  Q 71.75 523.05 67.44 518.58
  C 39.78 489.98 24.02 450.65 25.52 410.72
  Q 25.73 405.04 27.55 390.82
  Q 30.82 365.14 35.75 319.50
  Q 38.83 290.89 51.66 189.18
  C 54.20 169.04 59.25 150.43 69.18 133.17
  C 97.07 84.69 154.63 64.15 208.21 77.73
  C 249.85 88.29 281.83 115.12 303.93 151.53
  Z
  M 1054.48 448.29
  C 1046.12 492.96 1063.42 523.83 1104.17 541.83
  Q 1127.92 552.32 1153.19 555.55
  C 1171.25 557.85 1184.26 552.38 1197.48 540.50
  C 1209.66 529.56 1216.52 512.29 1211.76 496.18
  C 1205.65 475.47 1184.84 466.02 1164.93 464.94
  Q 1155.97 464.46 1147.00 464.25
  C 1123.64 463.71 1122.37 440.18 1125.50 423.06
  C 1141.65 334.77 1153.69 278.07 1167.37 205.52
  Q 1167.80 203.27 1167.99 197.65
  C 1168.76 174.88 1142.45 160.17 1122.97 168.20
  C 1111.04 173.12 1107.65 183.93 1105.30 195.31
  C 1098.06 230.34 1091.95 262.28 1085.50 293.80
  C 1074.96 345.26 1064.14 396.65 1054.48 448.29
  Z
  M 203.06 182.19
  C 192.54 171.98 177.34 168.72 164.66 177.21
  C 154.00 184.35 151.49 194.15 150.22 206.25
  C 142.23 282.06 136.44 341.92 127.49 398.23
  C 121.67 434.86 135.71 456.53 169.81 469.45
  Q 186.79 475.88 206.30 481.97
  Q 216.91 485.28 227.99 486.08
  C 249.93 487.66 270.71 474.37 280.65 455.84
  C 299.58 420.55 270.95 395.59 237.47 394.64
  Q 233.06 394.51 219.77 393.75
  C 201.95 392.73 196.69 376.79 198.03 361.55
  C 202.32 312.92 207.96 264.50 213.38 215.99
  C 214.92 202.21 213.59 192.40 203.06 182.19
  Z
  M 945.32 429.77
  Q 940.44 443.25 945.58 455.40
  C 953.01 472.99 973.23 482.65 990.93 473.90
  Q 1010.91 464.01 1010.79 441.25
  C 1010.67 417.44 1009.56 384.34 1008.96 351.32
  C 1008.05 301.27 1006.29 251.25 1005.09 201.20
  A 1.47 1.45 7.6 0 0 1004.03 199.83
  Q 996.77 197.71 989.43 196.34
  Q 939.28 186.93 885.38 177.63
  Q 884.05 177.40 883.67 178.70
  C 874.99 208.50 865.79 238.47 857.31 268.63
  C 843.61 317.32 828.52 365.65 815.22 414.43
  Q 811.55 427.88 817.73 438.78
  C 825.86 453.12 847.62 459.71 862.56 453.59
  C 876.12 448.04 879.83 433.87 879.68 420.76
  A 0.81 0.81 0.0 0 1 880.62 419.94
  L 945.23 429.61
  A 0.12 0.12 0.0 0 1 945.32 429.77
  Z
  M 619.52 403.67
  C 626.80 413.78 637.71 422.09 648.03 428.73
  C 655.06 433.26 660.90 434.88 669.00 436.51
  Q 702.24 443.18 730.88 446.70
  C 745.28 448.48 754.09 447.00 763.04 435.57
  C 771.97 424.17 774.05 410.90 767.38 397.99
  C 760.89 385.45 748.21 380.63 734.25 380.22
  C 713.51 379.61 690.45 378.93 676.61 364.25
  C 663.75 350.60 657.73 329.94 658.78 311.34
  C 660.36 283.34 672.93 258.06 703.12 253.18
  C 717.51 250.85 725.72 259.11 738.68 260.17
  C 758.40 261.78 772.78 246.03 773.13 227.04
  C 773.53 205.61 754.48 193.86 736.45 188.63
  C 678.64 171.86 620.42 203.91 600.67 259.93
  C 583.79 307.81 589.59 362.02 619.52 403.67
  Z
  M 360.11 449.39
  C 380.20 469.31 405.21 478.41 433.25 479.96
  Q 445.76 480.65 457.95 477.83
  C 520.84 463.28 550.92 412.33 556.01 351.50
  C 560.00 303.80 543.56 256.30 505.01 226.73
  C 459.80 192.06 395.12 196.41 356.92 239.82
  C 325.08 276.01 315.24 324.42 321.73 371.75
  Q 328.00 417.54 360.11 449.39
  Z
  M 610.13 535.58
  C 629.42 540.83 644.01 534.17 649.79 514.56
  C 655.13 496.44 651.04 467.91 627.05 466.44
  C 615.04 465.70 604.19 467.20 593.01 465.23
  A 0.56 0.56 0.0 0 0 592.36 465.71
  C 587.12 504.00 586.81 543.53 584.03 577.00
  Q 583.79 579.85 585.92 580.11
  C 592.74 580.94 598.88 582.28 605.90 582.22
  Q 606.54 582.21 606.58 581.57
  L 609.54 535.99
  Q 609.58 535.43 610.13 535.58
  Z
  M 685.86 572.75
  C 684.38 599.51 711.29 609.37 731.63 597.16
  C 739.85 592.22 743.42 582.74 745.25 573.50
  Q 748.42 557.47 752.41 523.57
  Q 754.48 505.92 743.08 495.94
  C 732.28 486.49 715.79 485.49 703.55 493.05
  C 695.07 498.28 693.10 508.48 691.51 518.75
  Q 687.35 545.62 685.86 572.75
  Z
  M 286.56 617.26
  C 322.01 601.75 359.90 612.52 392.96 628.76
  C 472.49 667.81 548.90 712.41 629.60 749.26
  Q 673.43 769.27 710.00 780.25
  C 738.53 788.81 771.38 793.41 801.07 789.37
  C 852.52 782.37 899.58 758.03 939.08 724.83
  C 957.15 709.64 977.31 691.95 998.84 675.81
  C 1019.99 659.95 1081.08 626.20 1102.64 656.67
  Q 1118.54 679.13 1104.86 699.61
  Q 1101.54 704.58 1091.22 714.15
  Q 1079.41 725.12 1067.64 736.14
  Q 1063.23 740.27 1059.39 745.08
  Q 1059.03 745.52 1059.52 745.82
  Q 1061.72 747.12 1063.57 747.45
  Q 1082.49 750.77 1099.56 757.94
  C 1105.45 760.41 1111.78 763.28 1118.12 762.98
  C 1126.48 762.59 1140.99 760.39 1147.38 754.51
  C 1155.32 747.21 1163.68 738.37 1172.05 732.54
  C 1195.74 716.04 1208.73 691.62 1204.81 662.44
  C 1197.69 609.60 1145.40 568.67 1093.06 572.06
  C 1070.54 573.53 1048.41 583.44 1028.71 594.97
  C 998.57 612.59 969.04 631.03 938.44 647.89
  Q 918.23 659.04 903.50 665.02
  Q 822.02 698.12 740.31 668.44
  C 686.73 648.98 636.11 619.14 584.07 593.54
  C 521.22 562.62 460.12 527.26 393.45 504.89
  C 378.71 499.94 362.63 496.00 348.24 494.25
  C 312.95 489.94 279.19 496.68 246.77 511.44
  C 214.57 526.09 191.52 547.80 166.58 571.08
  Q 164.31 573.20 162.17 575.52
  A 1.06 1.04 60.4 0 0 161.92 576.46
  Q 162.22 577.79 163.05 579.48
  Q 173.63 601.19 204.95 666.59
  Q 205.21 667.14 205.76 666.87
  Q 207.93 665.77 211.32 663.58
  Q 222.63 656.28 266.99 628.20
  Q 279.15 620.51 286.56 617.26
  Z
  M 812.54 578.62
  C 816.08 592.00 820.01 605.11 822.28 618.71
  A 1.70 1.67 -89.3 0 0 823.62 620.10
  L 840.53 623.46
  Q 841.93 623.74 842.22 622.34
  Q 854.01 566.61 863.24 510.40
  A 0.65 0.65 0.0 0 0 862.72 509.66
  L 845.02 506.36
  A 1.68 1.67 -77.7 0 0 843.08 507.61
  Q 837.90 529.06 830.95 549.97
  A 0.34 0.34 0.0 0 1 830.30 549.96
  C 827.18 538.93 825.87 527.61 824.26 516.25
  Q 823.49 510.82 821.60 506.14
  A 2.65 2.65 0.0 0 0 819.25 504.48
  L 801.45 503.78
  Q 800.90 503.75 800.65 504.24
  Q 799.91 505.68 799.50 507.25
  C 790.21 542.89 787.75 579.26 784.71 615.88
  A 0.70 0.69 9.2 0 0 785.25 616.61
  L 804.46 621.05
  Q 804.92 621.16 804.99 620.69
  Q 808.10 599.57 812.28 578.63
  Q 812.39 578.07 812.54 578.62
  Z
  M 932.30 593.54
  C 928.57 601.32 924.14 609.78 915.80 600.51
  Q 911.86 596.12 913.46 589.76
  C 915.90 580.02 928.90 534.75 946.35 545.13
  C 949.62 547.08 951.23 551.69 955.47 552.50
  Q 961.73 553.69 968.72 549.76
  C 970.86 548.56 970.16 546.36 970.30 544.48
  C 971.17 532.64 963.92 522.22 952.97 518.49
  C 941.09 514.45 927.30 519.11 918.54 527.81
  C 914.19 532.12 910.31 538.52 907.43 544.17
  Q 894.79 568.93 891.78 597.07
  C 889.47 618.64 913.93 637.25 933.83 628.63
  C 944.50 624.01 950.99 612.97 954.76 602.00
  Q 959.96 586.87 964.58 572.00
  A 0.95 0.94 -80.4 0 0 963.71 570.77
  Q 949.29 570.25 935.53 565.94
  A 1.08 1.07 22.0 0 0 934.25 566.48
  Q 929.17 576.54 925.79 587.31
  A 2.52 2.52 0.0 0 0 927.09 590.33
  L 932.03 592.77
  Q 932.55 593.02 932.30 593.54
  Z"
/>
<path fill="#cdd0d1" d="
  M 1104.17 541.83
  C 1063.42 523.83 1046.12 492.96 1054.48 448.29
  C 1064.14 396.65 1074.96 345.26 1085.50 293.80
  C 1091.95 262.28 1098.06 230.34 1105.30 195.31
  C 1107.65 183.93 1111.04 173.12 1122.97 168.20
  C 1142.45 160.17 1168.76 174.88 1167.99 197.65
  Q 1167.80 203.27 1167.37 205.52
  C 1153.69 278.07 1141.65 334.77 1125.50 423.06
  C 1122.37 440.18 1123.64 463.71 1147.00 464.25
  Q 1155.97 464.46 1164.93 464.94
  C 1184.84 466.02 1205.65 475.47 1211.76 496.18
  C 1216.52 512.29 1209.66 529.56 1197.48 540.50
  C 1184.26 552.38 1171.25 557.85 1153.19 555.55
  Q 1127.92 552.32 1104.17 541.83
  Z"
/>
<path fill="#cdd0d1" d="
  M 203.06 182.19
  C 213.59 192.40 214.92 202.21 213.38 215.99
  C 207.96 264.50 202.32 312.92 198.03 361.55
  C 196.69 376.79 201.95 392.73 219.77 393.75
  Q 233.06 394.51 237.47 394.64
  C 270.95 395.59 299.58 420.55 280.65 455.84
  C 270.71 474.37 249.93 487.66 227.99 486.08
  Q 216.91 485.28 206.30 481.97
  Q 186.79 475.88 169.81 469.45
  C 135.71 456.53 121.67 434.86 127.49 398.23
  C 136.44 341.92 142.23 282.06 150.22 206.25
  C 151.49 194.15 154.00 184.35 164.66 177.21
  C 177.34 168.72 192.54 171.98 203.06 182.19
  Z"
/>
<path fill="#cdd0d1" d="
  M 945.32 429.77
  A 0.12 0.12 0.0 0 0 945.23 429.61
  L 880.62 419.94
  A 0.81 0.81 0.0 0 0 879.68 420.76
  C 879.83 433.87 876.12 448.04 862.56 453.59
  C 847.62 459.71 825.86 453.12 817.73 438.78
  Q 811.55 427.88 815.22 414.43
  C 828.52 365.65 843.61 317.32 857.31 268.63
  C 865.79 238.47 874.99 208.50 883.67 178.70
  Q 884.05 177.40 885.38 177.63
  Q 939.28 186.93 989.43 196.34
  Q 996.77 197.71 1004.03 199.83
  A 1.47 1.45 7.6 0 1 1005.09 201.20
  C 1006.29 251.25 1008.05 301.27 1008.96 351.32
  C 1009.56 384.34 1010.67 417.44 1010.79 441.25
  Q 1010.91 464.01 990.93 473.90
  C 973.23 482.65 953.01 472.99 945.58 455.40
  Q 940.44 443.25 945.32 429.77
  Z
  M 905.23 353.30
  L 941.57 355.45
  Q 942.12 355.48 942.10 354.93
  L 937.40 251.10
  A 0.65 0.65 0.0 0 0 936.14 250.89
  C 932.56 259.90 929.25 268.63 926.40 278.17
  Q 915.29 315.36 904.82 352.73
  Q 904.67 353.27 905.23 353.30
  Z"
/>
<path fill="#cdd0d1" d="
  M 648.03 428.73
  C 637.71 422.09 626.80 413.78 619.52 403.67
  C 589.59 362.02 583.79 307.81 600.67 259.93
  C 620.42 203.91 678.64 171.86 736.45 188.63
  C 754.48 193.86 773.53 205.61 773.13 227.04
  C 772.78 246.03 758.40 261.78 738.68 260.17
  C 725.72 259.11 717.51 250.85 703.12 253.18
  C 672.93 258.06 660.36 283.34 658.78 311.34
  C 657.73 329.94 663.75 350.60 676.61 364.25
  C 690.45 378.93 713.51 379.61 734.25 380.22
  C 748.21 380.63 760.89 385.45 767.38 397.99
  C 774.05 410.90 771.97 424.17 763.04 435.57
  C 754.09 447.00 745.28 448.48 730.88 446.70
  Q 702.24 443.18 669.00 436.51
  C 660.90 434.88 655.06 433.26 648.03 428.73
  Z"
/>
<path fill="#cdd0d1" d="
  M 360.11 449.39
  Q 328.00 417.54 321.73 371.75
  C 315.24 324.42 325.08 276.01 356.92 239.82
  C 395.12 196.41 459.80 192.06 505.01 226.73
  C 543.56 256.30 560.00 303.80 556.01 351.50
  C 550.92 412.33 520.84 463.28 457.95 477.83
  Q 445.76 480.65 433.25 479.96
  C 405.21 478.41 380.20 469.31 360.11 449.39
  Z
  M 405.44 398.31
  Q 419.43 411.63 437.51 411.45
  C 479.04 411.03 491.29 357.96 487.78 326.34
  C 484.90 300.43 468.57 272.18 439.16 272.04
  C 409.14 271.90 393.09 301.44 388.50 326.99
  C 384.20 350.89 386.86 380.62 405.44 398.31
  Z"
/>
<path fill="#3d4044" d="
  M 941.57 355.45
  L 905.23 353.30
  Q 904.67 353.27 904.82 352.73
  Q 915.29 315.36 926.40 278.17
  C 929.25 268.63 932.56 259.90 936.14 250.89
  A 0.65 0.65 0.0 0 1 937.40 251.10
  L 942.10 354.93
  Q 942.12 355.48 941.57 355.45
  Z"
/>
<path fill="#3d4044" d="
  M 405.44 398.31
  C 386.86 380.62 384.20 350.89 388.50 326.99
  C 393.09 301.44 409.14 271.90 439.16 272.04
  C 468.57 272.18 484.90 300.43 487.78 326.34
  C 491.29 357.96 479.04 411.03 437.51 411.45
  Q 419.43 411.63 405.44 398.31
  Z"
/>
<path fill="#cdd0d1" d="
  M 609.54 535.99
  L 606.58 581.57
  Q 606.54 582.21 605.90 582.22
  C 598.88 582.28 592.74 580.94 585.92 580.11
  Q 583.79 579.85 584.03 577.00
  C 586.81 543.53 587.12 504.00 592.36 465.71
  A 0.56 0.56 0.0 0 1 593.01 465.23
  C 604.19 467.20 615.04 465.70 627.05 466.44
  C 651.04 467.91 655.13 496.44 649.79 514.56
  C 644.01 534.17 629.42 540.83 610.13 535.58
  Q 609.58 535.43 609.54 535.99
  Z
  M 609.74 511.60
  C 613.43 512.69 618.72 514.60 622.16 513.66
  C 628.78 511.87 628.97 502.48 627.29 496.94
  Q 624.98 489.30 616.97 488.44
  Q 611.24 487.82 610.72 492.73
  Q 609.72 502.10 609.10 510.67
  Q 609.04 511.40 609.74 511.60
  Z"
/>
<path fill="#cdd0d1" d="
  M 731.63 597.16
  C 711.29 609.37 684.38 599.51 685.86 572.75
  Q 687.35 545.62 691.51 518.75
  C 693.10 508.48 695.07 498.28 703.55 493.05
  C 715.79 485.49 732.28 486.49 743.08 495.94
  Q 754.48 505.92 752.41 523.57
  Q 748.42 557.47 745.25 573.50
  C 743.42 582.74 739.85 592.22 731.63 597.16
  Z
  M 707.56 570.50
  C 706.92 574.79 709.54 579.39 714.25 579.29
  C 722.54 579.11 723.90 571.48 724.74 564.75
  Q 727.86 539.68 729.39 521.51
  C 729.75 517.25 726.85 511.85 722.19 511.48
  C 716.66 511.05 715.90 517.92 715.15 522.43
  Q 711.18 546.45 707.56 570.50
  Z"
/>
<path fill="#3d4044" d="
  M 609.74 511.60
  Q 609.04 511.40 609.10 510.67
  Q 609.72 502.10 610.72 492.73
  Q 611.24 487.82 616.97 488.44
  Q 624.98 489.30 627.29 496.94
  C 628.97 502.48 628.78 511.87 622.16 513.66
  C 618.72 514.60 613.43 512.69 609.74 511.60
  Z"
/>
<path fill="#cdd0d1" d="
  M 392.96 628.76
  C 359.90 612.52 322.01 601.75 286.56 617.26
  Q 279.15 620.51 266.99 628.20
  Q 222.63 656.28 211.32 663.58
  Q 207.93 665.77 205.76 666.87
  Q 205.21 667.14 204.95 666.59
  Q 173.63 601.19 163.05 579.48
  Q 162.22 577.79 161.92 576.46
  A 1.06 1.04 60.4 0 1 162.17 575.52
  Q 164.31 573.20 166.58 571.08
  C 191.52 547.80 214.57 526.09 246.77 511.44
  C 279.19 496.68 312.95 489.94 348.24 494.25
  C 362.63 496.00 378.71 499.94 393.45 504.89
  C 460.12 527.26 521.22 562.62 584.07 593.54
  C 636.11 619.14 686.73 648.98 740.31 668.44
  Q 822.02 698.12 903.50 665.02
  Q 918.23 659.04 938.44 647.89
  C 969.04 631.03 998.57 612.59 1028.71 594.97
  C 1048.41 583.44 1070.54 573.53 1093.06 572.06
  C 1145.40 568.67 1197.69 609.60 1204.81 662.44
  C 1208.73 691.62 1195.74 716.04 1172.05 732.54
  C 1163.68 738.37 1155.32 747.21 1147.38 754.51
  C 1140.99 760.39 1126.48 762.59 1118.12 762.98
  C 1111.78 763.28 1105.45 760.41 1099.56 757.94
  Q 1082.49 750.77 1063.57 747.45
  Q 1061.72 747.12 1059.52 745.82
  Q 1059.03 745.52 1059.39 745.08
  Q 1063.23 740.27 1067.64 736.14
  Q 1079.41 725.12 1091.22 714.15
  Q 1101.54 704.58 1104.86 699.61
  Q 1118.54 679.13 1102.64 656.67
  C 1081.08 626.20 1019.99 659.95 998.84 675.81
  C 977.31 691.95 957.15 709.64 939.08 724.83
  C 899.58 758.03 852.52 782.37 801.07 789.37
  C 771.38 793.41 738.53 788.81 710.00 780.25
  Q 673.43 769.27 629.60 749.26
  C 548.90 712.41 472.49 667.81 392.96 628.76
  Z"
/>
<path fill="#cdd0d1" d="
  M 812.28 578.63
  Q 808.10 599.57 804.99 620.69
  Q 804.92 621.16 804.46 621.05
  L 785.25 616.61
  A 0.70 0.69 9.2 0 1 784.71 615.88
  C 787.75 579.26 790.21 542.89 799.50 507.25
  Q 799.91 505.68 800.65 504.24
  Q 800.90 503.75 801.45 503.78
  L 819.25 504.48
  A 2.65 2.65 0.0 0 1 821.60 506.14
  Q 823.49 510.82 824.26 516.25
  C 825.87 527.61 827.18 538.93 830.30 549.96
  A 0.34 0.34 0.0 0 0 830.95 549.97
  Q 837.90 529.06 843.08 507.61
  A 1.68 1.67 -77.7 0 1 845.02 506.36
  L 862.72 509.66
  A 0.65 0.65 0.0 0 1 863.24 510.40
  Q 854.01 566.61 842.22 622.34
  Q 841.93 623.74 840.53 623.46
  L 823.62 620.10
  A 1.70 1.67 -89.3 0 1 822.28 618.71
  C 820.01 605.11 816.08 592.00 812.54 578.62
  Q 812.39 578.07 812.28 578.63
  Z"
/>
<path fill="#3d4044" d="
  M 714.25 579.29
  C 709.54 579.39 706.92 574.79 707.56 570.50
  Q 711.18 546.45 715.15 522.43
  C 715.90 517.92 716.66 511.05 722.19 511.48
  C 726.85 511.85 729.75 517.25 729.39 521.51
  Q 727.86 539.68 724.74 564.75
  C 723.90 571.48 722.54 579.11 714.25 579.29
  Z"
/>
<path fill="#cdd0d1" d="
  M 932.03 592.77
  L 927.09 590.33
  A 2.52 2.52 0.0 0 1 925.79 587.31
  Q 929.17 576.54 934.25 566.48
  A 1.08 1.07 22.0 0 1 935.53 565.94
  Q 949.29 570.25 963.71 570.77
  A 0.95 0.94 -80.4 0 1 964.58 572.00
  Q 959.96 586.87 954.76 602.00
  C 950.99 612.97 944.50 624.01 933.83 628.63
  C 913.93 637.25 889.47 618.64 891.78 597.07
  Q 894.79 568.93 907.43 544.17
  C 910.31 538.52 914.19 532.12 918.54 527.81
  C 927.30 519.11 941.09 514.45 952.97 518.49
  C 963.92 522.22 971.17 532.64 970.30 544.48
  C 970.16 546.36 970.86 548.56 968.72 549.76
  Q 961.73 553.69 955.47 552.50
  C 951.23 551.69 949.62 547.08 946.35 545.13
  C 928.90 534.75 915.90 580.02 913.46 589.76
  Q 911.86 596.12 915.80 600.51
  C 924.14 609.78 928.57 601.32 932.30 593.54
  Q 932.55 593.02 932.03 592.77
  Z"
/>
</svg>
